<?xml version="1.0" standalone="no"?>
<!DOCTYPE svg PUBLIC "-//W3C//DTD SVG 20010904//EN"
 "http://www.w3.org/TR/2001/REC-SVG-20010904/DTD/svg10.dtd">
<svg version="1.0" xmlns="http://www.w3.org/2000/svg"
 width="76.000000pt" height="76.000000pt" viewBox="0 0 76.000000 76.000000"
 preserveAspectRatio="xMidYMid meet">
<metadata>
Created by potrace 1.14, written by Peter Selinger 2001-2017
</metadata>
<g transform="translate(0.000000,76.000000) scale(0.100000,-0.100000)"
fill="#000000" stroke="none">
<path d="M285 737 c-115 -39 -189 -103 -239 -207 -28 -59 -31 -74 -31 -160 0
-85 3 -101 29 -155 38 -76 110 -149 184 -183 50 -24 69 -27 157 -27 87 0 107
3 157 27 79 37 142 98 181 177 30 61 32 73 32 166 0 89 -3 106 -27 155 -43 87
-90 135 -174 176 -63 32 -87 38 -152 41 -46 2 -93 -2 -117 -10z m175 -242 l62
-120 -62 -115 c-34 -63 -66 -119 -70 -123 -4 -5 -38 48 -74 116 l-67 126 68
125 c37 69 71 122 74 118 3 -4 34 -61 69 -127z"/>
<path d="M325 473 c-22 -42 -41 -80 -43 -84 -4 -9 78 -53 84 -46 3 2 3 50 2
106 l-3 101 -40 -77z"/>
<path d="M400 448 c0 -60 2 -108 5 -108 10 0 85 40 85 45 0 3 -20 42 -45 88
l-45 82 0 -107z"/>
<path d="M310 310 c12 -23 30 -56 40 -73 l20 -32 0 52 c0 51 -1 53 -40 73
l-41 21 21 -41z"/>
<path d="M438 329 c-37 -19 -38 -21 -38 -72 0 -39 3 -48 11 -37 13 19 70 130
67 130 -2 -1 -20 -10 -40 -21z"/>
</g>
</svg>
